<?xml version="1.0" encoding="utf-8"?>
<!-- Generator: Adobe Illustrator 27.5.0, SVG Export Plug-In . SVG Version: 6.00 Build 0)  -->
<!DOCTYPE svg PUBLIC "-//W3C//DTD SVG 1.0//EN" "http://www.w3.org/TR/2001/REC-SVG-20010904/DTD/svg10.dtd" [
	<!ENTITY ns_extend "http://ns.adobe.com/Extensibility/1.0/">
	<!ENTITY ns_ai "http://ns.adobe.com/AdobeIllustrator/10.0/">
	<!ENTITY ns_graphs "http://ns.adobe.com/Graphs/1.0/">
	<!ENTITY ns_vars "http://ns.adobe.com/Variables/1.0/">
	<!ENTITY ns_imrep "http://ns.adobe.com/ImageReplacement/1.0/">
	<!ENTITY ns_sfw "http://ns.adobe.com/SaveForWeb/1.0/">
	<!ENTITY ns_custom "http://ns.adobe.com/GenericCustomNamespace/1.0/">
	<!ENTITY ns_adobe_xpath "http://ns.adobe.com/XPath/1.0/">
]>
<svg version="1.0" id="Layer_1" xmlns:x="&ns_extend;" xmlns:i="&ns_ai;" xmlns:graph="&ns_graphs;"
	 xmlns="http://www.w3.org/2000/svg" xmlns:xlink="http://www.w3.org/1999/xlink" x="0px" y="0px" viewBox="0 0 800 480"
	 style="enable-background:new 0 0 800 480;" xml:space="preserve">
<style type="text/css">
	.st0{opacity:0.85;fill:#490005;stroke:#231F20;stroke-width:23;stroke-miterlimit:10;}
	.st1{fill:#FFFFFF;}
	.st2{fill:#ED1C24;}
</style>
<metadata>
	<sfw  xmlns="&ns_sfw;">
		<slices></slices>
		<sliceSourceBounds  bottomLeftOrigin="true" height="340.8" width="790.5" x="4.7" y="-386.9"></sliceSourceBounds>
	</sfw>
</metadata>
<rect x="16.2" y="104.6" class="st0" width="767.5" height="270.7"/>
<g>
	<path class="st1" d="M180,221.3l-2.5,9.1h-8.3l10.9-35.6h10.6l11,35.6H193l-2.7-9.1H180z M189,215.2l-2.2-7.6
		c-0.6-2.1-1.3-4.8-1.8-6.9h-0.1c-0.5,2.1-1.1,4.8-1.6,6.9l-2.1,7.6H189z"/>
	<path class="st1" d="M230.4,192.9v29.8c0,2.9,0.1,6,0.2,7.7h-7.1l-0.4-3.8H223c-1.6,2.9-4.8,4.4-8.1,4.4c-6.1,0-11-5.2-11-13.3
		c-0.1-8.7,5.4-13.7,11.6-13.7c3.2,0,5.7,1.1,6.8,2.9h0.1v-14H230.4z M222.4,215.5c0-0.4-0.1-1-0.1-1.4c-0.5-2.2-2.2-4-4.7-4
		c-3.6,0-5.5,3.3-5.5,7.3c0,4.4,2.2,7.1,5.5,7.1c2.3,0,4.2-1.6,4.6-3.9c0.2-0.6,0.2-1.2,0.2-1.8V215.5z"/>
	<path class="st1" d="M247.8,195.3c2.1-0.4,6.4-0.7,10.4-0.7c4.9,0,7.9,0.5,10.5,2c2.5,1.3,4.3,3.8,4.3,7c0,3.2-1.8,6.1-5.9,7.6v0.1
		c4.1,1.1,7.1,4.2,7.1,8.8c0,3.2-1.5,5.8-3.7,7.6c-2.6,2.1-6.9,3.2-14,3.2c-4,0-6.9-0.3-8.7-0.5V195.3z M255.8,208.9h2.6
		c4.2,0,6.5-1.7,6.5-4.4c0-2.7-2.1-4.1-5.7-4.1c-1.7,0-2.7,0.1-3.4,0.2V208.9z M255.8,224.7c0.8,0.1,1.7,0.1,3.1,0.1
		c3.6,0,6.9-1.4,6.9-5.1c0-3.6-3.2-5-7.2-5h-2.7V224.7z"/>
	<path class="st1" d="M279.4,192.9h8v37.5h-8V192.9z"/>
	<path class="st1" d="M319.5,217.2c0,9.5-6.7,13.8-13.6,13.8c-7.6,0-13.4-5-13.4-13.3c0-8.3,5.5-13.7,13.8-13.7
		C314.2,204,319.5,209.4,319.5,217.2z M300.8,217.5c0,4.4,1.8,7.8,5.3,7.8c3.1,0,5.1-3.1,5.1-7.8c0-3.9-1.5-7.8-5.1-7.8
		C302.2,209.7,300.8,213.7,300.8,217.5z"/>
	<path class="st1" d="M344,229.8c-1.4,0.6-4.1,1.2-7.2,1.2c-8.3,0-13.7-5.1-13.7-13.2c0-7.6,5.2-13.7,14.8-13.7c2.1,0,4.4,0.4,6.1,1
		l-1.3,6c-1-0.4-2.4-0.8-4.5-0.8c-4.2,0-7,3-6.9,7.2c0,4.8,3.2,7.2,7.1,7.2c1.9,0,3.4-0.3,4.6-0.8L344,229.8z"/>
	<path class="st1" d="M356.5,215.5h0.1c0.6-1.1,1.2-2.1,1.8-3.1l5.2-7.8h9.7l-9.2,10.5l10.6,15.4h-9.9l-6.2-10.6l-2.1,2.5v8.1h-8
		v-37.5h8V215.5z"/>
	<path class="st1" d="M382.5,220.1c0.3,3.3,3.5,4.9,7.3,4.9c2.7,0,5-0.4,7.1-1.1l1.1,5.4c-2.6,1.1-5.9,1.6-9.4,1.6
		c-8.8,0-13.8-5.1-13.8-13.2c0-6.6,4.1-13.8,13.1-13.8c8.3,0,11.5,6.5,11.5,12.9c0,1.4-0.2,2.6-0.3,3.2H382.5z M392,214.6
		c0-2-0.8-5.2-4.5-5.2c-3.4,0-4.8,3.1-5,5.2H392z"/>
	<path class="st1" d="M404.2,213.1c0-3.8-0.1-6.3-0.2-8.5h6.9l0.3,4.8h0.2c1.3-3.8,4.5-5.3,7-5.3c0.7,0,1.1,0,1.7,0.1v7.6
		c-0.6-0.1-1.3-0.2-2.2-0.2c-3,0-5,1.6-5.5,4.1c-0.1,0.5-0.2,1.2-0.2,1.8v13.1h-8V213.1z"/>
	<path class="st1" d="M435.3,195.3c3-0.5,6.8-0.7,10.9-0.7c6.8,0,11.1,1.2,14.6,3.8c3.7,2.7,6,7.1,6,13.4c0,6.8-2.5,11.5-5.9,14.4
		c-3.8,3.1-9.5,4.6-16.4,4.6c-4.2,0-7.1-0.3-9.1-0.5V195.3z M443.3,224.3c0.7,0.2,1.8,0.2,2.8,0.2c7.3,0.1,12-4,12-12.5
		c0.1-7.4-4.3-11.3-11.2-11.3c-1.8,0-3,0.2-3.6,0.3V224.3z"/>
	<path class="st1" d="M477.9,220.1c0.3,3.3,3.5,4.9,7.3,4.9c2.7,0,5-0.4,7.1-1.1l1.1,5.4c-2.6,1.1-5.9,1.6-9.4,1.6
		c-8.8,0-13.8-5.1-13.8-13.2c0-6.6,4.1-13.8,13.1-13.8c8.3,0,11.5,6.5,11.5,12.9c0,1.4-0.2,2.6-0.3,3.2H477.9z M487.4,214.6
		c0-2-0.8-5.2-4.5-5.2c-3.4,0-4.8,3.1-5,5.2H487.4z"/>
	<path class="st1" d="M508.6,197.2v7.4h5.8v5.9h-5.8v9.4c0,3.1,0.7,4.5,3.2,4.5c1,0,1.8-0.1,2.4-0.2l0.1,6.1c-1.1,0.4-3,0.7-5.2,0.7
		c-2.6,0-4.8-0.9-6-2.2c-1.5-1.5-2.2-4-2.2-7.7v-10.6h-3.4v-5.9h3.4V199L508.6,197.2z"/>
	<path class="st1" d="M525,220.1c0.3,3.3,3.5,4.9,7.3,4.9c2.7,0,5-0.4,7.1-1.1l1.1,5.4c-2.6,1.1-5.9,1.6-9.4,1.6
		c-8.8,0-13.8-5.1-13.8-13.2c0-6.6,4.1-13.8,13.1-13.8c8.3,0,11.5,6.5,11.5,12.9c0,1.4-0.2,2.6-0.3,3.2H525z M534.4,214.6
		c0-2-0.8-5.2-4.5-5.2c-3.4,0-4.8,3.1-5,5.2H534.4z"/>
	<path class="st1" d="M566.1,229.8c-1.4,0.6-4.1,1.2-7.2,1.2c-8.3,0-13.7-5.1-13.7-13.2c0-7.6,5.2-13.7,14.8-13.7
		c2.1,0,4.4,0.4,6.1,1l-1.3,6c-1-0.4-2.4-0.8-4.5-0.8c-4.2,0-7,3-6.9,7.2c0,4.8,3.2,7.2,7.1,7.2c1.9,0,3.4-0.3,4.6-0.8L566.1,229.8z
		"/>
	<path class="st1" d="M580.3,197.2v7.4h5.8v5.9h-5.8v9.4c0,3.1,0.7,4.5,3.2,4.5c1,0,1.8-0.1,2.4-0.2l0.1,6.1c-1.1,0.4-3,0.7-5.2,0.7
		c-2.6,0-4.8-0.9-6-2.2c-1.5-1.5-2.2-4-2.2-7.7v-10.6H569v-5.9h3.4V199L580.3,197.2z"/>
	<path class="st1" d="M596.7,220.1c0.3,3.3,3.5,4.9,7.3,4.9c2.7,0,5-0.4,7.1-1.1l1.1,5.4c-2.6,1.1-5.9,1.6-9.4,1.6
		c-8.8,0-13.8-5.1-13.8-13.2c0-6.6,4.1-13.8,13.1-13.8c8.3,0,11.5,6.5,11.5,12.9c0,1.4-0.2,2.6-0.3,3.2H596.7z M606.1,214.6
		c0-2-0.8-5.2-4.5-5.2c-3.4,0-4.8,3.1-5,5.2H606.1z"/>
	<path class="st1" d="M643.4,192.9v29.8c0,2.9,0.1,6,0.2,7.7h-7.1l-0.4-3.8H636c-1.6,2.9-4.8,4.4-8.1,4.4c-6.1,0-11-5.2-11-13.3
		c-0.1-8.7,5.4-13.7,11.6-13.7c3.2,0,5.7,1.1,6.8,2.9h0.1v-14H643.4z M635.4,215.5c0-0.4-0.1-1-0.1-1.4c-0.5-2.2-2.2-4-4.7-4
		c-3.6,0-5.5,3.3-5.5,7.3c0,4.4,2.2,7.1,5.5,7.1c2.3,0,4.2-1.6,4.6-3.9c0.2-0.6,0.2-1.2,0.2-1.8V215.5z"/>
	<path class="st1" d="M96.7,258.7c2.5-0.4,6-0.7,10.9-0.7c5,0,8.5,1,10.9,2.9c2.3,1.8,3.8,4.8,3.8,8.2c0,3.5-1.2,6.4-3.3,8.5
		c-2.7,2.6-6.8,3.8-11.6,3.8c-1.1,0-2-0.1-2.7-0.2v12.7h-8V258.7z M104.7,274.8c0.7,0.2,1.5,0.2,2.7,0.2c4.3,0,6.9-2.2,6.9-5.8
		c0-3.3-2.3-5.2-6.3-5.2c-1.6,0-2.7,0.2-3.3,0.3V274.8z"/>
	<path class="st1" d="M127.2,256.3h8v37.5h-8V256.3z"/>
	<path class="st1" d="M147.9,283.5c0.3,3.3,3.5,4.9,7.3,4.9c2.7,0,5-0.4,7.1-1.1l1.1,5.4c-2.6,1.1-5.9,1.6-9.4,1.6
		c-8.8,0-13.8-5.1-13.8-13.2c0-6.6,4.1-13.8,13.1-13.8c8.3,0,11.5,6.5,11.5,12.9c0,1.4-0.2,2.6-0.3,3.2H147.9z M157.3,278
		c0-2-0.8-5.2-4.5-5.2c-3.4,0-4.8,3.1-5,5.2H157.3z"/>
	<path class="st1" d="M184.3,293.8l-0.5-2.6h-0.2c-1.7,2.1-4.3,3.2-7.4,3.2c-5.2,0-8.3-3.8-8.3-7.9c0-6.7,6-9.9,15.2-9.9v-0.4
		c0-1.4-0.7-3.3-4.7-3.3c-2.6,0-5.4,0.9-7.1,2l-1.5-5.2c1.8-1,5.3-2.3,10-2.3c8.6,0,11.4,5.1,11.4,11.1v9c0,2.5,0.1,4.9,0.4,6.3
		H184.3z M183.3,281.6c-4.2-0.1-7.5,1-7.5,4.1c0,2.1,1.4,3.1,3.2,3.1c2,0,3.6-1.3,4.2-3c0.1-0.4,0.2-0.9,0.2-1.4V281.6z"/>
	<path class="st1" d="M197.4,286.8c1.5,0.9,4.5,2,6.9,2c2.4,0,3.4-0.8,3.4-2.2c0-1.3-0.8-2-3.8-3c-5.3-1.8-7.4-4.7-7.3-7.8
		c0-4.8,4.1-8.5,10.5-8.5c3,0,5.7,0.7,7.3,1.5l-1.4,5.5c-1.2-0.6-3.4-1.5-5.6-1.5c-2,0-3.1,0.8-3.1,2.1c0,1.2,1,1.8,4.2,3
		c4.9,1.7,7,4.2,7,8c0,4.8-3.8,8.3-11.2,8.3c-3.4,0-6.4-0.7-8.3-1.8L197.4,286.8z"/>
	<path class="st1" d="M226.6,283.5c0.3,3.3,3.5,4.9,7.3,4.9c2.7,0,5-0.4,7.1-1.1l1.1,5.4c-2.6,1.1-5.9,1.6-9.4,1.6
		c-8.8,0-13.8-5.1-13.8-13.2c0-6.6,4.1-13.8,13.1-13.8c8.3,0,11.5,6.5,11.5,12.9c0,1.4-0.2,2.6-0.3,3.2H226.6z M236.1,278
		c0-2-0.8-5.2-4.5-5.2c-3.4,0-4.8,3.1-5,5.2H236.1z"/>
	<path class="st1" d="M259.3,258.7c3-0.5,6.8-0.7,10.9-0.7c6.8,0,11.1,1.2,14.6,3.8c3.7,2.7,6,7.1,6,13.4c0,6.8-2.5,11.5-5.9,14.4
		c-3.8,3.1-9.5,4.6-16.4,4.6c-4.2,0-7.1-0.3-9.1-0.5V258.7z M267.3,287.7c0.7,0.2,1.8,0.2,2.8,0.2c7.3,0.1,12-4,12-12.5
		c0.1-7.4-4.3-11.3-11.2-11.3c-1.8,0-3,0.2-3.6,0.3V287.7z"/>
	<path class="st1" d="M304.3,260.8c0,2.2-1.7,4-4.3,4c-2.5,0-4.2-1.8-4.2-4c-0.1-2.3,1.6-4.1,4.2-4.1S304.2,258.5,304.3,260.8z
		 M296,293.8V268h8v25.8H296z"/>
	<path class="st1" d="M310.4,286.8c1.5,0.9,4.5,2,6.9,2c2.4,0,3.4-0.8,3.4-2.2c0-1.3-0.8-2-3.8-3c-5.3-1.8-7.4-4.7-7.3-7.8
		c0-4.8,4.1-8.5,10.5-8.5c3,0,5.7,0.7,7.3,1.5l-1.4,5.5c-1.2-0.6-3.4-1.5-5.6-1.5c-2,0-3.1,0.8-3.1,2.1c0,1.2,1,1.8,4.2,3
		c4.9,1.7,7,4.2,7,8c0,4.8-3.8,8.3-11.2,8.3c-3.4,0-6.4-0.7-8.3-1.8L310.4,286.8z"/>
	<path class="st1" d="M348.1,293.8l-0.5-2.6h-0.2c-1.7,2.1-4.3,3.2-7.4,3.2c-5.2,0-8.3-3.8-8.3-7.9c0-6.7,6-9.9,15.2-9.9v-0.4
		c0-1.4-0.7-3.3-4.7-3.3c-2.6,0-5.4,0.9-7.1,2l-1.5-5.2c1.8-1,5.3-2.3,10-2.3c8.6,0,11.4,5.1,11.4,11.1v9c0,2.5,0.1,4.9,0.4,6.3
		H348.1z M347.1,281.6c-4.2-0.1-7.5,1-7.5,4.1c0,2.1,1.4,3.1,3.2,3.1c2,0,3.6-1.3,4.2-3c0.1-0.4,0.2-0.9,0.2-1.4V281.6z"/>
	<path class="st1" d="M361.1,293.8c0.1-1.7,0.2-4.8,0.2-7.7v-29.8h8V271h0.1c1.5-2.2,4.2-3.6,7.8-3.6c6.2,0,10.7,5.1,10.7,13.1
		c0,9.3-5.9,14-11.8,14c-3,0-5.9-1.1-7.8-4.2h-0.1l-0.3,3.6H361.1z M369.3,282.8c0,0.5,0.1,1,0.2,1.4c0.5,2.2,2.4,3.8,4.7,3.8
		c3.4,0,5.5-2.6,5.5-7.3c0-4-1.8-7.2-5.5-7.2c-2.2,0-4.2,1.6-4.7,4c-0.1,0.5-0.2,1-0.2,1.5V282.8z"/>
	<path class="st1" d="M392.9,256.3h8v37.5h-8V256.3z"/>
	<path class="st1" d="M413.6,283.5c0.3,3.3,3.5,4.9,7.3,4.9c2.7,0,5-0.4,7.1-1.1l1.1,5.4c-2.6,1.1-5.9,1.6-9.4,1.6
		c-8.8,0-13.8-5.1-13.8-13.2c0-6.6,4.1-13.8,13.1-13.8c8.3,0,11.5,6.5,11.5,12.9c0,1.4-0.2,2.6-0.3,3.2H413.6z M423.1,278
		c0-2-0.8-5.2-4.5-5.2c-3.4,0-4.8,3.1-5,5.2H423.1z"/>
	<path class="st1" d="M451.1,265h-9.6v-6.8h27.4v6.8h-9.7v28.9h-8.1V265z"/>
	<path class="st1" d="M494.1,280.6c0,9.5-6.7,13.8-13.6,13.8c-7.6,0-13.4-5-13.4-13.3c0-8.3,5.5-13.7,13.8-13.7
		C488.8,267.4,494.1,272.8,494.1,280.6z M475.4,280.9c0,4.4,1.8,7.8,5.3,7.8c3.1,0,5.1-3.1,5.1-7.8c0-3.9-1.5-7.8-5.1-7.8
		C476.8,273.1,475.4,277.1,475.4,280.9z"/>
	<path class="st1" d="M536.2,292.8c-1.5,0.7-4.8,1.5-9.1,1.5c-12.3,0-18.7-7.7-18.7-17.8c0-12.2,8.7-18.9,19.4-18.9
		c4.2,0,7.3,0.8,8.8,1.6l-1.6,6.4c-1.6-0.7-3.9-1.3-6.8-1.3c-6.4,0-11.4,3.9-11.4,11.8c0,7.1,4.2,11.6,11.4,11.6
		c2.4,0,5.1-0.5,6.7-1.2L536.2,292.8z"/>
	<path class="st1" d="M565.7,280.6c0,9.5-6.7,13.8-13.6,13.8c-7.6,0-13.4-5-13.4-13.3c0-8.3,5.5-13.7,13.8-13.7
		C560.4,267.4,565.7,272.8,565.7,280.6z M547,280.9c0,4.4,1.8,7.8,5.3,7.8c3.1,0,5.1-3.1,5.1-7.8c0-3.9-1.5-7.8-5.1-7.8
		C548.4,273.1,547,277.1,547,280.9z"/>
	<path class="st1" d="M570.7,276.2c0-3.2-0.1-6-0.2-8.2h7l0.4,3.5h0.2c1.1-1.6,3.7-4.1,8-4.1c5.3,0,9.2,3.5,9.2,11.1v15.3h-8v-14.3
		c0-3.3-1.2-5.6-4.1-5.6c-2.2,0-3.5,1.5-4.1,3c-0.2,0.5-0.3,1.3-0.3,2v14.9h-8V276.2z"/>
	<path class="st1" d="M610.3,260.6v7.4h5.8v5.9h-5.8v9.4c0,3.1,0.7,4.5,3.2,4.5c1,0,1.8-0.1,2.4-0.2l0.1,6.1c-1.1,0.4-3,0.7-5.2,0.7
		c-2.6,0-4.8-0.9-6-2.2c-1.5-1.5-2.2-4-2.2-7.7v-10.6H599V268h3.4v-5.6L610.3,260.6z"/>
	<path class="st1" d="M629,260.8c0,2.2-1.7,4-4.3,4c-2.5,0-4.2-1.8-4.2-4c-0.1-2.3,1.6-4.1,4.2-4.1S629,258.5,629,260.8z
		 M620.7,293.8V268h8v25.8H620.7z"/>
	<path class="st1" d="M635.2,276.2c0-3.2-0.1-6-0.2-8.2h7l0.4,3.5h0.2c1.1-1.6,3.7-4.1,8-4.1c5.3,0,9.2,3.5,9.2,11.1v15.3h-8v-14.3
		c0-3.3-1.2-5.6-4.1-5.6c-2.2,0-3.5,1.5-4.1,3c-0.2,0.5-0.3,1.3-0.3,2v14.9h-8V276.2z"/>
	<path class="st1" d="M690.5,285.5c0,3.4,0.1,6.1,0.2,8.3h-7l-0.4-3.6h-0.2c-1,1.6-3.4,4.2-8.1,4.2c-5.2,0-9.1-3.3-9.1-11.3V268h8.1
		v13.9c0,3.8,1.2,6,4,6c2.2,0,3.5-1.5,4-2.8c0.2-0.5,0.3-1.1,0.3-1.7V268h8.1V285.5z"/>
	<path class="st1" d="M703.1,283.5c0.3,3.3,3.5,4.9,7.3,4.9c2.7,0,5-0.4,7.1-1.1l1.1,5.4c-2.6,1.1-5.9,1.6-9.4,1.6
		c-8.8,0-13.8-5.1-13.8-13.2c0-6.6,4.1-13.8,13.1-13.8c8.3,0,11.5,6.5,11.5,12.9c0,1.4-0.2,2.6-0.3,3.2H703.1z M712.6,278
		c0-2-0.8-5.2-4.5-5.2c-3.4,0-4.8,3.1-5,5.2H712.6z"/>
</g>
<circle class="st2" cx="95.3" cy="104.6" r="58.6"/>
<g>
	<path class="st1" d="M82.8,137.1c0-6.2,4.3-10.7,10.5-10.7s10.3,4.5,10.4,10.7c0,6.1-4.1,10.7-10.4,10.7S82.8,143.2,82.8,137.1z
		 M86.7,120.5L84,67.5h18.6l-2.6,53.1H86.7z"/>
</g>
<g>
</g>
<g>
</g>
<g>
</g>
<g>
</g>
<g>
</g>
<g>
</g>
</svg>
